nColumns=19
nRows=51
DataType=double
version=3
OpenSimVersion=4.1
endheader
time	ground_force_calcn_r_vx	ground_force_calcn_r_vy	ground_force_calcn_r_vz	ground_force_calcn_r_px	ground_force_calcn_r_py	ground_force_calcn_r_pz	ground_force_calcn_r_mx	ground_force_calcn_r_my	ground_force_calcn_r_mz	ground_force_calcn_l_vx	ground_force_calcn_l_vy	ground_force_calcn_l_vz	ground_force_calcn_l_px	ground_force_calcn_l_py	ground_force_calcn_l_pz	ground_force_calcn_l_mx	ground_force_calcn_l_my	ground_force_calcn_l_mz
0.04	8.31047	36.7555	10.313	0.00832491	0	-0.188249	0.152491	0.674436	0.189235	0	0	0	0	0	0	0	0	0
0.05	7.96578	59.0485	13.0363	0.0280764	0	-0.188275	0.0868545	0.643832	0.14214	0	0	0	0	0	0	0	0	0
0.06	6.86	86.4263	15.9782	0.0399074	0	-0.187421	0.0471731	0.594314	0.109875	0	0	0	0	0	0	0	0	0
0.07	4.74576	118.983	19.0083	0.048306	0	-0.186405	0.0208753	0.523375	0.0836124	0	0	0	0	0	0	0	0	0
0.08	1.35552	156.484	21.938	0.0549855	0	-0.185364	0.00367958	0.424778	0.0595509	0	0	0	0	0	0	0	0	0
0.09	-3.49188	198.42	24.5356	0.0607448	0	-0.184306	-0.0051346	0.291765	0.0360781	0	0	0	0	0	0	0	0	0
0.1	-9.77588	244.168	26.5404	0.0659915	0	-0.183204	-0.00473994	0.118387	0.0128684	0	0	0	0	0	0	0	0	0
0.11	-17.3017	293.051	27.671	0.0709292	0	-0.182032	0.00586498	-0.099339	-0.00937998	0	0	0	0	0	0	0	0	0
0.12	-25.8062	344.281	27.6618	0.0756654	0	-0.180777	0.0271853	-0.36268	-0.0291401	0	0	0	0	0	0	0	0	0
0.13	-35.016	396.9	26.3141	0.0802532	0	-0.179447	0.0590537	-0.669363	-0.0443782	0	0	0	0	0	0	0	0	0
0.14	-44.6409	449.804	23.5406	0.0847171	0	-0.178064	0.100354	-1.01117	-0.0529196	0	0	0	0	0	0	0	0	0
0.15	-54.3516	501.805	19.3986	0.0890535	0	-0.176661	0.148504	-1.37108	-0.0530026	0	0	0	0	0	0	0	0	0
0.16	-63.7854	551.659	14.1052	0.0932406	0	-0.17528	0.199274	-1.72346	-0.0440667	0	0	0	0	0	0	0	0	0
0.17	-72.5598	598.08	8.01621	0.0972496	0	-0.173967	0.247406	-2.03926	-0.0273328	0	0	0	0	0	0	0	0	0
0.18	-80.2901	639.821	1.55767	0.101051	0	-0.172757	0.287924	-2.29442	-0.00558586	0	0	0	0	0	0	0	0	0
0.19	-86.6301	675.795	-4.8544	0.104624	0	-0.171672	0.317403	-2.47604	0.017786	0	0	0	0	0	0	0	0	0
0.2	-91.3173	705.217	-10.8713	0.107963	0	-0.17072	0.334479	-2.58308	0.0398198	0	0	0	0	0	0	0	0	0
0.21	-94.2125	727.678	-16.2407	0.111079	0	-0.169897	0.339662	-2.62348	0.0585521	0	0	0	0	0	0	0	0	0
0.22	-95.3063	743.144	-20.8021	0.113997	0	-0.16919	0.334631	-2.60926	0.0730383	0	0	0	0	0	0	0	0	0
0.23	-94.6991	751.897	-24.4784	0.11675	0	-0.168582	0.321555	-2.5531	0.0831177	0	0	0	0	0	0	0	0	0
0.24	-92.5742	754.485	-27.2643	0.119378	0	-0.168056	0.302664	-2.46673	0.0891386	0	0	0	0	0	0	0	0	0
0.25	-89.1643	751.655	-29.2083	0.121924	0	-0.167595	0.279922	-2.35975	0.0916967	0	0	0	0	0	0	0	0	0
0.26	-84.7211	744.289	-30.3941	0.124432	0	-0.167185	0.254881	-2.23917	0.0914397	0	0	0	0	0	0	0	0	0
0.27	-79.4992	733.341	-30.9264	0.126945	0	-0.166809	0.228722	-2.10985	0.0889764	0	0	0	0	0	0	0	0	0
0.28	-73.7478	719.788	-30.9162	0.129505	0	-0.166458	0.20239	-1.97535	0.0848448	0	0	0	0	0	0	0	0	0
0.29	-67.7081	704.586	-30.467	0.132156	0	-0.166125	0.176699	-1.83877	0.0795103	0	0	0	0	0	0	0	0	0
0.3	-61.6045	688.635	-29.664	0.134934	0	-0.165804	0.152422	-1.70382	0.0733948	0	0	0	0	0	0	0	0	0
0.31	-55.6309	672.763	-28.5706	0.137873	0	-0.165499	0.130276	-1.57547	0.0669062	0	0	0	0	0	0	0	0	0
0.32	-49.9376	657.698	-27.229	0.140994	0	-0.165211	0.11086	-1.46007	0.0604476	0	0	0	0	0	0	0	0	0
0.33	-44.6229	644.05	-25.6669	0.144306	0	-0.164951	0.0945811	-1.3651	0.0544025	0	0	0	0	0	0	0	0	0
0.34	-39.7326	632.282	-23.9101	0.147803	0	-0.164726	0.0815915	-1.2984	0.0490997	0	0	0	0	0	0	0	0	0
0.35	-35.2645	622.704	-21.9954	0.15147	0	-0.164543	0.0717565	-1.26708	0.0447564	0	0	0	0	0	0	0	0	0
0.36	-31.1802	615.469	-19.9797	0.155282	0	-0.164402	0.0646618	-1.27637	0.0414342	0	0	0	0	0	0	0	0	0
0.37	-27.4214	610.602	-17.9435	0.159217	0	-0.164298	0.059665	-1.32858	0.0390425	0	0	0	0	0	0	0	0	0
0.38	-23.9247	608.024	-15.9861	0.163258	0	-0.164219	0.0559796	-1.42267	0.0374048	0	0	0	0	0	0	0	0	0
0.39	-20.628	607.597	-14.2131	0.167398	0	-0.164148	0.0527739	-1.55445	0.0363621	0	0	0	0	0	0	0	0	0
0.4	-17.4731	609.16	-12.7176	0.171638	0	-0.16407	0.0492633	-1.71745	0.0358557	0	0	0	0	0	0	0	0	0
0.41	-14.4049	612.565	-11.5672	0.175985	0	-0.163971	0.044774	-1.90401	0.0359538	0	0	0	0	0	0	0	0	0
0.42	-11.3698	617.697	-10.7995	0.18045	0	-0.163841	0.0387726	-2.10644	0.0368278	0	0	0	0	0	0	0	0	0
0.43	-8.31573	624.48	-10.4244	0.185042	0	-0.163678	0.0308614	-2.31758	0.0386873	0	0	0	0	0	0	0	0	0
0.44	-5.19161	632.863	-10.431	0.189767	0	-0.163481	0.0207616	-2.53087	0.0417142	0	0	0	0	0	0	0	0	0
0.45	-1.94855	642.805	-10.795	0.194627	0	-0.163255	0.00830552	-2.7399	0.046013	0	0	0	0	0	0	0	0	0
0.46	1.45792	654.251	-11.4852	0.199615	0	-0.163006	-0.0065466	-2.93784	0.0515727	0	0	0	0	0	0	0	0	0
0.47	5.06694	667.12	-12.4632	0.204716	0	-0.16274	-0.023675	-3.11708	0.0582335	0	0	0	0	0	0	0	0	0
0.48	8.91451	681.288	-13.6828	0.209907	0	-0.162468	-0.0427795	-3.26941	0.0656621	0	0	0	0	0	0	0	0	0
0.49	13.0377	696.581	-15.0879	0.215152	0	-0.162203	-0.0633915	-3.3869	0.0733601	0	0	0	0	0	0	0	0	0
0.5	17.4777	712.763	-16.6107	0.220409	0	-0.161955	-0.0849248	-3.46334	0.0807121	0	0	0	0	0	0	0	0	0
0.51	22.2784	729.532	-18.1722	0.225628	0	-0.161739	-0.106739	-3.49528	0.0870654	0	0	0	0	0	0	0	0	0
0.52	27.4797	746.507	-19.6854	0.230763	0	-0.161566	-0.12819	-3.48239	0.0918309	0	0	0	0	0	0	0	0	0
0.53	33.1084	763.215	-21.0615	0.235771	0	-0.161445	-0.148676	-3.42728	0.0945784	0	0	0	0	0	0	0	0	0
0.54	39.1694	779.068	-22.2179	0.240617	0	-0.161382	-0.167659	-3.33468	0.0951004	0	0	0	0	0	0	0	0	0
